<svg width="24" height="24" viewBox="0 0 24 24" fill="none" xmlns="http://www.w3.org/2000/svg">
<circle cx="12" cy="18" r="2.35" fill="white" stroke="black" stroke-width="1.3"/>
<path d="M10.65 4C10.65 3.25442 11.2544 2.65 12 2.65C12.7456 2.65 13.35 3.25442 13.35 4V4.5V5C13.35 5.74558 12.7456 6.35 12 6.35C11.2544 6.35 10.65 5.74558 10.65 5V4Z" fill="white" stroke="black" stroke-width="1.3"/>
<path d="M17.7669 15.372L17.7669 15.372L19.6191 18.1161C19.6864 18.2157 19.615 18.35 19.4948 18.35H4.50519C4.385 18.35 4.31362 18.2157 4.38087 18.1161L6.23309 15.372C6.30961 15.2587 6.35032 15.125 6.34997 14.9882C6.34997 14.9882 6.34997 14.9882 6.34997 14.9882L6.33804 10.3205C6.33004 7.1911 8.86464 4.65 11.994 4.65C15.1177 4.65 17.65 7.18227 17.65 10.306V14.9899C17.65 15.1261 17.6907 15.2592 17.7669 15.372Z" fill="white" stroke="black" stroke-width="1.3"/>
</svg>
