<svg width="28" height="28" viewBox="0 0 28 28" fill="none" xmlns="http://www.w3.org/2000/svg">
<g filter="url(#filter0_d_816_22446)">
<circle cx="14" cy="13" r="13" fill="white"/>
<circle cx="14" cy="13" r="12.85" stroke="#F5F5F5" stroke-width="0.3"/>
</g>
<path d="M18.75 17.8125H9.25C8.97386 17.8125 8.75 17.5886 8.75 17.3125V10.4375C8.75 10.1614 8.97386 9.9375 9.25 9.9375H11.8125C11.8168 9.554 11.8616 9.26929 11.9928 9.00478C12.1224 8.74329 12.418 8.625 12.7099 8.625H15.2104C15.5472 8.625 15.8763 8.78709 16.0223 9.09062C16.1577 9.37213 16.2012 9.61002 16.1875 9.9375H18.75C19.0261 9.9375 19.25 10.1614 19.25 10.4375V17.3125C19.25 17.5886 19.0261 17.8125 18.75 17.8125Z" fill="#37393A" stroke="#37393A"/>
<circle cx="14" cy="13.875" r="2.225" stroke="white" stroke-width="0.8"/>
<defs>
<filter id="filter0_d_816_22446" x="0" y="0" width="28" height="28" filterUnits="userSpaceOnUse" color-interpolation-filters="sRGB">
<feFlood flood-opacity="0" result="BackgroundImageFix"/>
<feColorMatrix in="SourceAlpha" type="matrix" values="0 0 0 0 0 0 0 0 0 0 0 0 0 0 0 0 0 0 127 0" result="hardAlpha"/>
<feOffset dy="1"/>
<feGaussianBlur stdDeviation="0.5"/>
<feComposite in2="hardAlpha" operator="out"/>
<feColorMatrix type="matrix" values="0 0 0 0 0.75 0 0 0 0 0.75 0 0 0 0 0.75 0 0 0 0.25 0"/>
<feBlend mode="normal" in2="BackgroundImageFix" result="effect1_dropShadow_816_22446"/>
<feBlend mode="normal" in="SourceGraphic" in2="effect1_dropShadow_816_22446" result="shape"/>
</filter>
</defs>
</svg>
