<svg width="28" height="30" viewBox="0 0 28 30" fill="none" xmlns="http://www.w3.org/2000/svg">
<path d="M9.12958 18.0564L8.61902 19.4109C7.76809 21.6683 7.25401 25.084 11.5431 26.7008C14.0349 27.64 17.0496 26.456 18.2409 23.2956L20.2831 17.8778" stroke="#74AADD" stroke-width="1.5" stroke-linecap="round"/>
<path d="M12.4039 2.53194L10.8238 1.93632C9.9208 1.59595 8.12515 1.43472 7.26381 3.1726C6.18713 5.34494 3.43109 15.3923 9.30042 17.6047C15.1698 19.8171 20.6088 9.49205 21.0343 8.36333C21.4597 7.23462 20.7565 5.68043 18.7248 4.91459C18.183 4.71037 17.5961 4.48912 17.3703 4.40403" stroke="#CED4DA" stroke-width="1.5"/>
<rect x="11.8418" y="1.28857" width="2.41249" height="1.92999" rx="0.964996" transform="rotate(20.6538 11.8418 1.28857)" fill="#434343"/>
<rect x="16.3574" y="2.99048" width="2.41249" height="1.92999" rx="0.964996" transform="rotate(20.6538 16.3574 2.99048)" fill="#434343"/>
<path d="M5.69922 10.0596C5.62045 12.0924 6.23045 16.4475 9.30057 17.6048C12.3707 18.762 15.6469 16.0438 16.9013 14.54" stroke="#74A8DC" stroke-width="1.5" stroke-linecap="round"/>
<circle cx="21.0726" cy="16.3707" r="2.63624" transform="rotate(20.6538 21.0726 16.3707)" fill="#CED4DA" stroke="#434343"/>
<circle cx="21.0723" cy="16.3708" r="0.784059" transform="rotate(20.6538 21.0723 16.3708)" fill="#434343"/>
</svg>
