<svg width="27" height="14" viewBox="0 0 27 14" fill="none" xmlns="http://www.w3.org/2000/svg">
<path d="M5.38477 10.7691V6.46143H21.0002V10.7691C19.9232 11.846 16.8002 13.9999 12.9232 13.9999C9.0463 13.9999 6.2822 11.846 5.38477 10.7691Z" fill="#2D3A4C"/>
<path d="M12.9231 9.69231L0 4.84615L12.9231 0L26.3846 4.84615L12.9231 9.69231Z" fill="#374A5C"/>
<path d="M13.0165 4.64485C13.2027 4.59311 13.3117 4.40019 13.26 4.21394C13.2083 4.02769 13.0153 3.91865 12.8291 3.97039L13.0165 4.64485ZM3.23047 6.99993L3.13679 6.66269L2.88047 6.7339V6.99993H3.23047ZM12.8291 3.97039L3.13679 6.66269L3.32414 7.33716L13.0165 4.64485L12.8291 3.97039ZM2.88047 6.99993V11.8461H3.58047V6.99993H2.88047Z" fill="#E87B5C"/>
<circle cx="3.23122" cy="11.8462" r="1.07692" fill="#E8795F"/>
</svg>
