<svg width="34" height="18" viewBox="0 0 34 18" fill="none" xmlns="http://www.w3.org/2000/svg">
<rect width="34" height="18" rx="9" fill="#F25F59"/>
<path d="M6.001 13V4.86H7.629V8.061H10.709V4.86H12.326V13H10.709V9.48H7.629V13H6.001ZM17.5602 13.154C15.4042 13.154 13.9192 11.537 13.9192 8.897C13.9192 6.246 15.4042 4.706 17.5602 4.706C19.7162 4.706 21.2012 6.257 21.2012 8.897C21.2012 11.537 19.7162 13.154 17.5602 13.154ZM17.5602 11.746C18.7702 11.746 19.5402 10.635 19.5402 8.897C19.5402 7.148 18.7702 6.103 17.5602 6.103C16.3502 6.103 15.5802 7.148 15.5802 8.897C15.5802 10.635 16.3502 11.746 17.5602 11.746ZM24.0643 13V6.213H21.7763V4.86H28.0023V6.213H25.6923V13H24.0643Z" fill="white"/>
</svg>
