<svg width="18" height="24" viewBox="0 0 18 24" fill="none" xmlns="http://www.w3.org/2000/svg">
<path d="M1 18.9936L3.53165 14.1529L14.4177 14L17 18.9936L13.2532 18.6879L11.4304 22L9 17.414L6.51899 22L4.74684 18.6879L1 18.9936Z" fill="#D26963" stroke="#D36963"/>
<path d="M0 19.5L2.5 15L4.92057 15.7368L4.39717 16.6316C4.24016 16.5263 3.86331 16.3789 3.61208 16.6316C3.36086 16.8842 3.50741 17.3158 3.71676 17.4211C4.30994 17.7544 5.53817 18.4421 5.70566 18.5263C5.91501 18.6316 6.07203 18.7895 5.96735 19.1053C5.88361 19.3579 5.51374 19.3158 5.33928 19.2632C5.2695 19.2281 5.00431 19.1053 4.50185 18.8947C3.99939 18.6842 3.73421 18.9123 3.71676 19.2632L0 19.5Z" fill="#C85A51"/>
<path d="M11.5 23L8 17.283C9.56546 16.9056 12.7471 16.132 12.9502 16.0566C13.2041 15.9622 13.6483 15.9617 13.9022 16.2452C14.1219 16.4906 13.9429 16.7796 13.6483 16.9056C12.9502 17.2044 11.5032 17.8207 11.3002 17.8962C11.0463 17.9905 10.729 18.3679 11.1098 18.6509C11.4144 18.8773 11.758 18.8014 12.0617 18.6509C12.1104 18.6268 12.2267 18.5566 12.6329 18.3679C13.0391 18.1792 13.3099 18.3522 13.3945 18.4622C13.5214 18.6511 13.4072 19 12.9502 19.2641C12.4933 19.5283 13 20 12.9502 20.2257L11.5 23Z" fill="#CF5A57"/>
<circle cx="9" cy="9" r="9" fill="#F8D26E"/>
<circle cx="9" cy="9" r="7" fill="#EEB65E"/>
<path d="M1.00031 8.99969C1.00031 8.63055 1.8913 8.32951 1.94164 7.97424C1.99291 7.61033 1.22214 7.06895 1.32253 6.72353C1.42475 6.37196 2.36364 6.33683 2.51255 6.00836C2.66298 5.6762 2.0756 4.93638 2.26966 4.63164C2.46495 4.32505 3.37547 4.55923 3.61134 4.28468C3.84751 4.00983 3.48928 3.13289 3.76146 2.8944C4.03303 2.65652 4.84194 3.13875 5.14555 2.94124C5.44733 2.74496 5.34724 1.80177 5.67618 1.64956C6.00145 1.49919 6.64254 2.19217 6.99069 2.08895C7.33305 1.98757 7.50149 1.05425 7.86216 1.00217C8.21398 0.95164 8.63476 1.799 9.00031 1.799C9.36586 1.799 9.78633 0.952257 10.1382 1.00279C10.4985 1.05456 10.6673 1.98819 11.0096 2.08957C11.3578 2.19279 11.9989 1.4998 12.3241 1.65017C12.6531 1.80208 12.5533 2.74557 12.8548 2.94185C13.1584 3.13906 13.967 2.65714 14.2388 2.89502C14.511 3.13351 14.1528 4.01045 14.389 4.2853C14.6245 4.55954 15.5351 4.32567 15.7306 4.63226C15.925 4.937 15.3373 5.67651 15.4878 6.00898C15.6367 6.33745 16.5756 6.37257 16.6778 6.72415C16.7782 7.06987 16.0074 7.61095 16.0587 7.97485C16.1087 8.33013 17 8.63117 17 9.00031C17 9.36945 16.109 9.67049 16.0587 10.0258C16.0074 10.3897 16.7782 10.9311 16.6778 11.2765C16.5756 11.628 15.6367 11.6632 15.4878 11.9916C15.3373 12.3238 15.9247 13.0636 15.7306 13.3684C15.5354 13.675 14.6248 13.4408 14.389 13.7153C14.1528 13.9902 14.511 14.8671 14.2388 15.1056C13.9673 15.3435 13.1584 14.8613 12.8548 15.0588C12.553 15.255 12.6531 16.1982 12.3241 16.3504C11.9989 16.5008 11.3578 15.8078 11.0096 15.9111C10.6673 16.0124 10.4988 16.9458 10.1382 16.9978C9.78633 17.0484 9.36555 16.201 9 16.201C8.63445 16.201 8.21367 17.0484 7.86185 16.9978C7.50149 16.9461 7.33275 16.0124 6.99039 15.9111C6.64223 15.8078 6.00114 16.5008 5.67587 16.3504C5.34694 16.1985 5.44672 15.255 5.14524 15.0588C4.84164 14.8616 4.03303 15.3435 3.76116 15.1056C3.48898 14.8671 3.8472 13.9902 3.61103 13.7153C3.37547 13.4411 2.46495 13.675 2.26936 13.3684C2.07499 13.0636 2.66267 12.3241 2.51224 11.9916C2.36334 11.6632 1.42444 11.628 1.32222 11.2765C1.22183 10.9307 1.9926 10.3897 1.94134 10.0258C1.8913 9.67049 1 9.36945 1 9.00031L1.00031 8.99969Z" fill="#FCAB28"/>
</svg>
