<svg width="20" height="20" viewBox="0 0 20 20" fill="none" xmlns="http://www.w3.org/2000/svg">
<path d="M12.5 6.52295C13.1667 6.52295 14.5 7 14.5 9" stroke="#83ACF9" stroke-linecap="round"/>
<path d="M6.62283 2.08944L8.54079 5.92535C8.5624 5.96858 8.54889 6.0218 8.51064 6.05134C6.58964 7.53435 7.09524 9.02852 8.57812 11.5C10.2117 14.2225 12.1282 13.7013 13.0015 13.0588C13.0449 13.0268 13.106 13.0325 13.141 13.0734L16.0179 16.4297C16.0519 16.4694 16.0497 16.5285 16.0122 16.5648C15.6406 16.9244 14.8299 17.6241 14.0781 18C13.0781 18.5 12.0781 18.5 10.5781 17.5C6.57812 14.5 3.57811 8 3.07811 6C2.67811 4.4 3.91144 3.33333 4.57811 3L6.48867 2.04472C6.53807 2.02002 6.59813 2.04004 6.62283 2.08944Z" fill="#100556" stroke="#100556" stroke-linecap="round"/>
<path d="M12 4.49965C13.5 4.33298 17 5.50001 16.5 9.5" stroke="#83ACF9" stroke-linecap="round"/>
</svg>
