<svg width="30" height="30" viewBox="0 0 30 30" fill="none" xmlns="http://www.w3.org/2000/svg">
<circle cx="20" cy="10" r="10" fill="#F7D055"/>
<circle cx="20" cy="10" r="7.5" fill="#F3B640" stroke="white"/>
<circle cx="13" cy="17" r="13" fill="white"/>
<circle cx="13" cy="17" r="11" fill="#F7D055"/>
<circle cx="13" cy="17" r="8.5" fill="#F3B640" stroke="white"/>
<path d="M10.7949 12.2227H13.5664C14.1536 12.2227 14.6478 12.3319 15.0488 12.5503C15.4535 12.7651 15.756 13.0623 15.9565 13.4419C16.1606 13.8215 16.2627 14.2565 16.2627 14.7471C16.2627 15.234 16.1606 15.6691 15.9565 16.0522C15.756 16.4318 15.4535 16.7308 15.0488 16.9492C14.6442 17.1641 14.1501 17.2715 13.5664 17.2715H11.9766V20H10.7949V12.2227ZM13.4482 16.2617C13.9961 16.2653 14.4025 16.1292 14.6675 15.8535C14.936 15.5778 15.0703 15.209 15.0703 14.7471C15.0703 14.2816 14.936 13.9146 14.6675 13.646C14.4025 13.3739 13.9961 13.236 13.4482 13.2324H11.9766V16.2617H13.4482Z" fill="white"/>
</svg>
