<svg width="20" height="20" viewBox="0 0 20 20" fill="none" xmlns="http://www.w3.org/2000/svg">
<circle cx="13.3327" cy="6.66667" r="6.66667" fill="#F7D055"/>
<circle cx="13.3333" cy="6.67025" r="4.83333" fill="#F3B640" stroke="white"/>
<circle cx="8.66667" cy="11.3317" r="8.66667" fill="white"/>
<circle cx="8.66536" cy="11.3368" r="7.33333" fill="#F7D055"/>
<circle cx="8.66602" cy="11.3403" r="5.5" fill="#F3B640" stroke="white"/>
<path d="M7.25787 8.05078H9.02154C9.39524 8.05078 9.70969 8.12028 9.9649 8.25928C10.2224 8.396 10.4149 8.58512 10.5425 8.82666C10.6724 9.0682 10.7374 9.34505 10.7374 9.65723C10.7374 9.96712 10.6724 10.244 10.5425 10.4878C10.4149 10.7293 10.2224 10.9196 9.9649 11.0586C9.70741 11.1953 9.39296 11.2637 9.02154 11.2637H8.00982V13H7.25787V8.05078ZM8.94634 10.6211C9.29498 10.6234 9.5536 10.5368 9.72222 10.3613C9.89312 10.1859 9.97857 9.95117 9.97857 9.65723C9.97857 9.361 9.89312 9.12744 9.72222 8.95654C9.5536 8.78337 9.29498 8.69564 8.94634 8.69336H8.00982V10.6211H8.94634Z" fill="white"/>
</svg>
