<svg width="100" height="100" viewBox="0 0 100 100" fill="none" xmlns="http://www.w3.org/2000/svg">
<circle cx="50.5" cy="50.5" r="49.5" fill="#5C4DD1"/>
<path d="M26 68.0725V30.5683C26 30.4095 26.1273 30.2781 26.2857 30.268C41.0642 29.3205 48.69 24.0914 51.288 20.8942C51.4805 20.6572 51.92 20.7921 51.92 21.0974V91.0898C51.92 91.316 51.6759 91.4589 51.4767 91.3517C35.7175 82.8731 27.9709 72.442 26.0255 68.1933C26.0078 68.1546 26 68.1151 26 68.0725Z" fill="white"/>
<path d="M77.4277 68.0725V30.5683C77.4277 30.4095 77.3004 30.2781 77.142 30.268C62.3636 29.3205 54.7377 24.0914 52.1398 20.8942C51.9472 20.6572 51.5077 20.7921 51.5077 21.0974V91.0898C51.5077 91.316 51.7519 91.4589 51.9511 91.3517C67.7103 82.8731 75.4569 72.442 77.4022 68.1933C77.4199 68.1546 77.4277 68.1151 77.4277 68.0725Z" fill="#E8E8E8"/>
<path d="M42.5088 75.6352C47.4088 75.6352 50.7838 71.9602 50.7838 65.9602C50.7838 59.9602 47.4088 56.4352 42.5088 56.4352C37.6088 56.4352 34.2338 59.9352 34.2338 65.9602C34.2338 71.9602 37.6088 75.6352 42.5088 75.6352ZM42.5088 72.4352C39.7588 72.4352 38.0088 69.9102 38.0088 65.9602C38.0088 61.9852 39.7588 59.6102 42.5088 59.6102C45.2588 59.6102 47.0088 61.9852 47.0088 65.9602C47.0088 69.9102 45.2588 72.4352 42.5088 72.4352ZM54.3971 75.2852H58.0971V70.0852L60.5221 66.9852L65.2971 75.2852H69.3721L62.7221 64.0602L68.3721 56.7852H64.2971L58.1721 64.8102H58.0971V56.7852H54.3971V75.2852Z" fill="url(#paint0_linear_318_17752)"/>
<path d="M37.1126 46.4812C39.1566 46.4812 40.2346 45.3752 40.2346 44.0032C40.2346 42.5472 39.0866 42.0292 38.0506 41.6372C37.2246 41.3292 36.4546 41.1192 36.4546 40.5452C36.4546 40.0972 36.7906 39.7892 37.4906 39.7892C38.0786 39.7892 38.6246 40.0692 39.1846 40.4612L40.1086 39.2152C39.4506 38.7252 38.5826 38.2492 37.4346 38.2492C35.6706 38.2492 34.5226 39.2432 34.5226 40.6572C34.5226 41.9592 35.6706 42.5612 36.6646 42.9392C37.4906 43.2612 38.3026 43.5272 38.3026 44.1152C38.3026 44.6052 37.9526 44.9412 37.1686 44.9412C36.4406 44.9412 35.7686 44.6332 35.0686 44.0872L34.1306 45.3752C34.9006 46.0192 36.0626 46.4812 37.1126 46.4812ZM44.3461 46.4812C45.0321 46.4812 45.5781 46.3272 45.9981 46.1872L45.6621 44.6892C45.4521 44.7732 45.1441 44.8572 44.8921 44.8572C44.1921 44.8572 43.8281 44.4372 43.8281 43.5412V40.0692H45.7601V38.4452H43.8281V36.3452H42.1061L41.8681 38.4452L40.6641 38.5432V40.0692H41.7701V43.5412C41.7701 45.3052 42.4841 46.4812 44.3461 46.4812ZM50.4973 46.4812C51.4773 46.4812 52.4713 46.1452 53.2413 45.6132L52.5413 44.3532C51.9813 44.7032 51.4213 44.8992 50.7773 44.8992C49.6153 44.8992 48.7753 44.2272 48.6073 42.9392H53.4373C53.4933 42.7572 53.5353 42.3792 53.5353 42.0012C53.5353 39.8312 52.4153 38.2492 50.2593 38.2492C48.3833 38.2492 46.6053 39.8312 46.6053 42.3792C46.6053 44.9552 48.3133 46.4812 50.4973 46.4812ZM48.5793 41.5812C48.7333 40.4332 49.4613 39.8452 50.2873 39.8452C51.2953 39.8452 51.7713 40.5172 51.7713 41.5812H48.5793ZM55.23 49.2952H57.274V46.9152L57.218 45.6272C57.82 46.1732 58.478 46.4812 59.164 46.4812C60.886 46.4812 62.496 44.9272 62.496 42.2392C62.496 39.8312 61.348 38.2492 59.416 38.2492C58.576 38.2492 57.764 38.6972 57.106 39.2572H57.05L56.91 38.4452H55.23V49.2952ZM58.702 44.7872C58.282 44.7872 57.778 44.6332 57.274 44.1992V40.7552C57.82 40.2092 58.296 39.9432 58.828 39.9432C59.906 39.9432 60.382 40.7692 60.382 42.2672C60.382 43.9752 59.654 44.7872 58.702 44.7872ZM64.2818 46.2852H70.5118V44.6192H68.5658V35.9252H67.0398C66.3818 36.3312 65.6678 36.5972 64.6318 36.7932V38.0672H66.5078V44.6192H64.2818V46.2852Z" fill="url(#paint1_linear_318_17752)"/>
<defs>
<linearGradient id="paint0_linear_318_17752" x1="34.0523" y1="53.6602" x2="57.1187" y2="88.3106" gradientUnits="userSpaceOnUse">
<stop stop-color="#9E75F6"/>
<stop offset="0.651042" stop-color="#8F97F3"/>
<stop offset="1" stop-color="#81B5F1"/>
</linearGradient>
<linearGradient id="paint1_linear_318_17752" x1="35.0923" y1="32.3302" x2="50.1577" y2="62.913" gradientUnits="userSpaceOnUse">
<stop stop-color="#9E75F6"/>
<stop offset="0.651042" stop-color="#8F97F3"/>
<stop offset="1" stop-color="#81B5F1"/>
</linearGradient>
</defs>
</svg>
