<svg width="26" height="20" viewBox="0 0 26 20" fill="none" xmlns="http://www.w3.org/2000/svg">
<path d="M4.5 2.5C4.5 1.39543 5.39543 0.5 6.5 0.5H23.3846C24.0006 0.5 24.5 0.999375 24.5 1.61538V4.5H6.5C5.39543 4.5 4.5 3.60457 4.5 2.5Z" fill="#FEF9D8" stroke="#916244"/>
<path d="M4.5 3.31372H23.668C24.4965 3.31372 25.168 3.98529 25.168 4.81372V12.8515C25.168 13.68 24.4965 14.3515 23.668 14.3515H6C5.17157 14.3515 4.5 13.68 4.5 12.8515V3.31372Z" fill="#A56F4A" stroke="#916244"/>
<path d="M21.3516 8.83359C21.3516 7.78007 22.2056 6.92603 23.2591 6.92603H25.1667V10.7411H23.2591C22.2056 10.7411 21.3516 9.8871 21.3516 8.83359Z" fill="#FEF9D8" stroke="#906342"/>
<mask id="mask0_816_8024" style="mask-type:alpha" maskUnits="userSpaceOnUse" x="1" y="9" width="6" height="9">
<path d="M7 9.5L1 9.50003V16.5004C1 16.568 1.02266 16.6343 1.06651 16.6857C2.57224 18.4516 5.88722 17.9979 6.94206 16.6811C6.98126 16.6322 7 16.571 7 16.5083V9.5Z" fill="black"/>
</mask>
<g mask="url(#mask0_816_8024)">
<path d="M7 9H1V16.5003C1 16.5679 1.02266 16.6342 1.06651 16.6857C2.57224 18.4516 5.88722 17.9979 6.94206 16.6811C6.98126 16.6322 7 16.571 7 16.5083V9Z" fill="#C49F47"/>
<path d="M0.5 11C1 11.5 2.8 12 4 12C5.2 12 7 11.5 7.5 11" stroke="#E9C563" stroke-width="0.2"/>
<path d="M0.5 12C1 12.5 2.8 13 4 13C5.2 13 7 12.5 7.5 12" stroke="#E9C563" stroke-width="0.2"/>
<path d="M0.5 13C1 13.5 2.8 14 4 14C5.2 14 7 13.5 7.5 13" stroke="#E9C563" stroke-width="0.2"/>
<path d="M0.5 14C1 14.5 2.8 15 4 15C5.2 15 7 14.5 7.5 14" stroke="#E9C563" stroke-width="0.2"/>
<path d="M0.5 15C1 15.5 2.8 16 4 16C5.2 16 7 15.5 7.5 15" stroke="#E9C563" stroke-width="0.2"/>
<path d="M0.5 16C1 16.5 2.8 17 4 17C5.2 17 7 16.5 7.5 16" stroke="#E9C563" stroke-width="0.2"/>
<path d="M0.5 17C1 17.5 2.8 18 4 18C5.2 18 7 17.5 7.5 17" stroke="#E9C563" stroke-width="0.2"/>
</g>
<ellipse cx="4" cy="9.5" rx="3" ry="1.5" fill="#FFEE65"/>
<mask id="mask1_816_8024" style="mask-type:alpha" maskUnits="userSpaceOnUse" x="6" y="13" width="6" height="6">
<path d="M12 13.5H6V17.8757C6 17.9553 6.03101 18.0322 6.09007 18.0855C7.59089 19.4399 10.825 19.0078 11.9089 18.084C11.9694 18.0323 12 17.9553 12 17.8757V13.5Z" fill="black"/>
</mask>
<g mask="url(#mask1_816_8024)">
<path d="M12 13H6V20.5003C6 20.5679 6.02266 20.6342 6.06651 20.6857C7.57224 22.4516 10.8872 21.9979 11.9421 20.6811C11.9813 20.6322 12 20.571 12 20.5083V13Z" fill="#C49F47"/>
<path d="M5.5 15C6 15.5 7.8 16 9 16C10.2 16 12 15.5 12.5 15" stroke="#E9C563" stroke-width="0.2"/>
<path d="M5.5 16C6 16.5 7.8 17 9 17C10.2 17 12 16.5 12.5 16" stroke="#E9C563" stroke-width="0.2"/>
<path d="M5.5 17C6 17.5 7.8 18 9 18C10.2 18 12 17.5 12.5 17" stroke="#E9C563" stroke-width="0.2"/>
</g>
<ellipse cx="9" cy="13.5" rx="3" ry="1.5" fill="#FFEE65"/>
<mask id="mask2_816_8024" style="mask-type:alpha" maskUnits="userSpaceOnUse" x="0" y="16" width="6" height="4">
<path d="M6 16L0 16.5V17.6686C0 17.8808 0.0820327 18.0879 0.24477 18.224C2.16214 19.828 5.16878 19.0573 5.89721 18.1569C5.97532 18.0604 6 17.9353 6 17.8111V16Z" fill="black"/>
</mask>
<g mask="url(#mask2_816_8024)">
<path d="M6 16H0V23.5003C0 23.5679 0.0226612 23.6342 0.0665096 23.6857C1.57224 25.4516 4.88722 24.9979 5.94206 23.6811C5.98126 23.6322 6 23.571 6 23.5083V16Z" fill="#C49F47"/>
</g>
<ellipse cx="3" cy="16.5" rx="3" ry="1.5" fill="#FFEE65"/>
</svg>
